# xmcd
#
# Track frame offsets: 
#        150
#        18360
#        33907
#        51647
#        67947
#        87237
#        109935
#        124602
#        143755
#        166530
#        187592
#        206515
#
# Disc length: 2990 seconds
#
# Revision: 4
# Processed by: cddbd v1.5.2PL0 Copyright (c) Steve Scherf et al.
# Submitted via: ExactAudioCopy v1.0b3
#
DISCID=940bac0c
DTITLE=村下孝蔵 - 歌人Ⅱ -ソングコレクション-
DYEAR=1996
DGENRE=フォーク (日本)
TTITLE0=陽だまり
TTITLE1=ねがい
TTITLE2=夢のつづき
TTITLE3=とまりぎ
TTITLE4=月あかり
TTITLE5=モ・ザ・イ・ク
TTITLE6=かざぐるま
TTITLE7=哀愁物語～哀愁にさようなら～
TTITLE8=美しすぎるミステイク
TTITLE9=離愁
TTITLE10=約束
TTITLE11=歌人
EXTD=
EXTT0=
EXTT1=
EXTT2=
EXTT3=
EXTT4=
EXTT5=
EXTT6=
EXTT7=
EXTT8=
EXTT9=
EXTT10=
EXTT11=
PLAYORDER=
